name rise45.9887peak57.8056fall74.9286.mot
datacolumns 19
datarows 15
range 15.16494300000000 15.18827600000000
endheader
time	ground_force1_vx	ground_force1_vy	ground_force1_vz	ground_force1_px	ground_force1_py	ground_force1_pz	ground_force2_vx	ground_force2_vy	ground_force2_vz	ground_force2_px	ground_force2_py	ground_force2_pz	ground_torque1_x	ground_torque1_y	ground_torque1_z	ground_torque2_x	ground_torque2_y	ground_torque2_z	
15.16494300000000	7.37180000000000	708.57863899999995	45.84603000000000	0.20605500000000	0.00000000000000	0.12551600000000	0.00000000000000	0.00000000000000	0.00000000000000	0.00000000000000	0.00000000000000	0.00000000000000	0.00000000000000	16.99047200000000	0.00000000000000	0.00000000000000	0.00000000000000	0.00000000000000	
15.16661200000000	7.05434700000000	709.91243999999995	45.84514900000000	0.20524900000000	0.00000000000000	0.12543700000000	0.00000000000000	0.00000000000000	0.00000000000000	0.00000000000000	0.00000000000000	0.00000000000000	0.00000000000000	17.02542800000000	0.00000000000000	0.00000000000000	0.00000000000000	0.00000000000000	
15.16828000000000	6.72689600000000	711.27534300000002	45.84829000000000	0.20442000000000	0.00000000000000	0.12535800000000	0.00000000000000	0.00000000000000	0.00000000000000	0.00000000000000	0.00000000000000	0.00000000000000	0.00000000000000	17.06396900000000	0.00000000000000	0.00000000000000	0.00000000000000	0.00000000000000	
15.16994300000000	6.38926300000000	712.66513999999995	45.85526500000000	0.20356900000000	0.00000000000000	0.12528000000000	0.00000000000000	0.00000000000000	0.00000000000000	0.00000000000000	0.00000000000000	0.00000000000000	0.00000000000000	17.10604500000000	0.00000000000000	0.00000000000000	0.00000000000000	0.00000000000000	
15.17161000000000	6.04130900000000	714.07965799999999	45.86589100000000	0.20269600000000	0.00000000000000	0.12520200000000	0.00000000000000	0.00000000000000	0.00000000000000	0.00000000000000	0.00000000000000	0.00000000000000	0.00000000000000	17.15160400000000	0.00000000000000	0.00000000000000	0.00000000000000	0.00000000000000	
15.17327400000000	5.68293500000000	715.51676799999996	45.87999000000000	0.20180000000000	0.00000000000000	0.12512400000000	0.00000000000000	0.00000000000000	0.00000000000000	0.00000000000000	0.00000000000000	0.00000000000000	0.00000000000000	17.20059900000000	0.00000000000000	0.00000000000000	0.00000000000000	0.00000000000000	
15.17494500000000	5.31408300000000	716.97438699999998	45.89739300000000	0.20088400000000	0.00000000000000	0.12504700000000	0.00000000000000	0.00000000000000	0.00000000000000	0.00000000000000	0.00000000000000	0.00000000000000	0.00000000000000	17.25298100000000	0.00000000000000	0.00000000000000	0.00000000000000	0.00000000000000	
15.17660900000000	4.93474100000000	718.45047699999998	45.91793900000000	0.19994600000000	0.00000000000000	0.12497100000000	0.00000000000000	0.00000000000000	0.00000000000000	0.00000000000000	0.00000000000000	0.00000000000000	0.00000000000000	17.30870000000000	0.00000000000000	0.00000000000000	0.00000000000000	0.00000000000000	
15.17827500000000	4.54493200000000	719.94305399999996	45.94147400000000	0.19898900000000	0.00000000000000	0.12489500000000	0.00000000000000	0.00000000000000	0.00000000000000	0.00000000000000	0.00000000000000	0.00000000000000	0.00000000000000	17.36771000000000	0.00000000000000	0.00000000000000	0.00000000000000	0.00000000000000	
15.17994300000000	4.14472300000000	721.45018300000004	45.96785400000000	0.19801400000000	0.00000000000000	0.12481900000000	0.00000000000000	0.00000000000000	0.00000000000000	0.00000000000000	0.00000000000000	0.00000000000000	0.00000000000000	17.42996200000000	0.00000000000000	0.00000000000000	0.00000000000000	0.00000000000000	
15.18161100000000	3.73421600000000	722.96998299999996	45.99694200000000	0.19702100000000	0.00000000000000	0.12474400000000	0.00000000000000	0.00000000000000	0.00000000000000	0.00000000000000	0.00000000000000	0.00000000000000	0.00000000000000	17.49540900000000	0.00000000000000	0.00000000000000	0.00000000000000	0.00000000000000	
15.18327700000000	3.31355200000000	724.50063000000000	46.02861100000000	0.19601100000000	0.00000000000000	0.12466900000000	0.00000000000000	0.00000000000000	0.00000000000000	0.00000000000000	0.00000000000000	0.00000000000000	0.00000000000000	17.56400400000000	0.00000000000000	0.00000000000000	0.00000000000000	0.00000000000000	
15.18494900000000	2.88290600000000	726.04035599999997	46.06274400000000	0.19498700000000	0.00000000000000	0.12459500000000	0.00000000000000	0.00000000000000	0.00000000000000	0.00000000000000	0.00000000000000	0.00000000000000	0.00000000000000	17.63569700000000	0.00000000000000	0.00000000000000	0.00000000000000	0.00000000000000	
15.18661500000000	2.44248700000000	727.58745099999999	46.09923200000000	0.19394900000000	0.00000000000000	0.12452000000000	0.00000000000000	0.00000000000000	0.00000000000000	0.00000000000000	0.00000000000000	0.00000000000000	0.00000000000000	17.71044000000000	0.00000000000000	0.00000000000000	0.00000000000000	0.00000000000000	
15.18827600000000	1.99253700000000	729.14026500000000	46.13797700000000	0.19289900000000	0.00000000000000	0.12444600000000	0.00000000000000	0.00000000000000	0.00000000000000	0.00000000000000	0.00000000000000	0.00000000000000	0.00000000000000	17.78818500000000	0.00000000000000	0.00000000000000	0.00000000000000	0.00000000000000	
